<?xml version="1.0" encoding="UTF-8"?>
<svg width="589px" height="147px" viewBox="0 0 589 147" version="1.1" xmlns="http://www.w3.org/2000/svg" xmlns:xlink="http://www.w3.org/1999/xlink" xmlns:sketch="http://www.bohemiancoding.com/sketch/ns">
    <!-- Generator: Sketch 3.1.1 (8761) - http://www.bohemiancoding.com/sketch -->
    <title>beamup-white</title>
    <desc>Created with Sketch.</desc>
    <defs></defs>
    <g id="Logos" stroke="none" stroke-width="1" fill="none" fill-rule="evenodd" sketch:type="MSPage">
        <polygon id="Triangle-4" fill="#F6F0F7" sketch:type="MSShapeGroup" points="568.5 0 589 41 548 41 "></polygon>
        <path d="M51.496,48.544 C56.5840254,51.7600161 60.5679856,56.2239714 63.448,61.936 C66.3280144,67.6480286 67.768,74.0559645 67.768,81.16 C67.768,88.2640355 66.3040146,94.719971 63.376,100.528 C60.4479854,106.336029 56.4400254,110.919983 51.352,114.28 C46.2639746,117.640017 40.6000312,119.32 34.36,119.32 C28.6959717,119.32 23.464024,117.808015 18.664,114.784 C13.863976,111.759985 9.88001584,107.560027 6.712,102.184 L6.712,115 C6.712,115.768004 6.44800264,116.439997 5.92,117.016 C5.39199736,117.592003 4.69600432,117.88 3.832,117.88 C3.06399616,117.88 2.39200288,117.592003 1.816,117.016 C1.23999712,116.439997 0.952,115.768004 0.952,115 L0.952,14.344 C0.952,13.5759962 1.21599736,12.9040029 1.744,12.328 C2.27200264,11.7519971 2.96799568,11.464 3.832,11.464 C4.69600432,11.464 5.39199736,11.7519971 5.92,12.328 C6.44800264,12.9040029 6.712,13.5759962 6.712,14.344 L6.712,61.288 C9.5920144,55.6239717 13.4559758,51.2800151 18.304,48.256 C23.1520242,45.2319849 28.5039707,43.72 34.36,43.72 C40.6960317,43.72 46.4079746,45.3279839 51.496,48.544 L51.496,48.544 Z M48.328,109.528 C52.5520211,106.647986 55.8879878,102.736025 58.336,97.792 C60.7840122,92.8479753 62.008,87.3040307 62.008,81.16 C62.008,75.0159693 60.7840122,69.5200242 58.336,64.672 C55.8879878,59.8239758 52.5520211,56.0320137 48.328,53.296 C44.1039789,50.5599863 39.3520264,49.192 34.072,49.192 C28.6959731,49.192 23.8720214,50.5599863 19.6,53.296 C15.3279786,56.0320137 12.0160118,59.8239758 9.664,64.672 C7.31198824,69.5200242 6.136,75.0159693 6.136,81.16 C6.136,87.3040307 7.335988,92.871975 9.736,97.864 C12.136012,102.856025 15.4479789,106.767986 19.672,109.6 C23.8960211,112.432014 28.6959731,113.848 34.072,113.848 C39.3520264,113.848 44.1039789,112.408014 48.328,109.528 L48.328,109.528 Z M145.24,101.392 C145.720002,101.920003 145.96,102.519997 145.96,103.192 C145.96,103.864003 145.768002,104.439998 145.384,104.92 C142.215984,109.144021 138.280024,112.599987 133.576,115.288 C128.871976,117.976013 123.832027,119.32 118.456,119.32 C111.255964,119.32 104.872028,117.784015 99.304,114.712 C93.7359722,111.639985 89.3920156,107.272028 86.272,101.608 C83.1519844,95.9439717 81.592,89.3680374 81.592,81.88 C81.592,74.1999616 83.1039849,67.456029 86.128,61.648 C89.1520151,55.839971 93.159975,51.4000154 98.152,48.328 C103.144025,45.2559846 108.471972,43.72 114.136,43.72 C119.800028,43.72 125.055976,44.9439878 129.904,47.392 C134.752024,49.8400122 138.711985,53.5119755 141.784,58.408 C144.856015,63.3040245 146.487999,69.351964 146.68,76.552 C146.68,77.3200038 146.392003,78.0159969 145.816,78.64 C145.239997,79.2640031 144.568004,79.576 143.8,79.576 L87.208,79.576 L87.208,81.448 C87.208,87.4000298 88.407988,92.8479753 90.808,97.792 C93.208012,102.736025 96.7599765,106.647986 101.464,109.528 C106.168024,112.408014 111.831967,113.848 118.456,113.848 C123.064023,113.848 127.40798,112.720011 131.488,110.464 C135.56802,108.207989 138.759988,105.352017 141.064,101.896 C141.736003,101.031996 142.551995,100.6 143.512,100.6 C144.184003,100.6 144.759998,100.863997 145.24,101.392 L145.24,101.392 Z M103.264,52.288 C99.5679815,54.1600094 96.3040142,56.9439815 93.472,60.64 C90.6399858,64.3360185 88.7440048,68.8239736 87.784,74.104 L140.776,74.104 L140.776,72.808 C140.295998,67.9119755 138.736013,63.7120175 136.096,60.208 C133.455987,56.7039825 130.192019,54.0400091 126.304,52.216 C122.415981,50.3919909 118.360021,49.48 114.136,49.48 C110.583982,49.48 106.960018,50.4159906 103.264,52.288 L103.264,52.288 Z M227.104,46.888 C227.632003,47.4640029 227.896,48.1359962 227.896,48.904 L227.896,115 C227.896,115.768004 227.608003,116.439997 227.032,117.016 C226.455997,117.592003 225.784004,117.88 225.016,117.88 C224.151996,117.88 223.456003,117.592003 222.928,117.016 C222.399997,116.439997 222.136,115.768004 222.136,115 L222.136,102.04 C219.735988,106.936024 216.040025,111.039983 211.048,114.352 C206.055975,117.664017 200.53603,119.32 194.488,119.32 C188.151968,119.32 182.440025,117.664017 177.352,114.352 C172.263975,111.039983 168.280014,106.480029 165.4,100.672 C162.519986,94.863971 161.08,88.360036 161.08,81.16 C161.08,74.0559645 162.543985,67.6480286 165.472,61.936 C168.400015,56.2239714 172.407975,51.7600161 177.496,48.544 C182.584025,45.3279839 188.247969,43.72 194.488,43.72 C200.728031,43.72 206.343975,45.3519837 211.336,48.616 C216.328025,51.8800163 219.927989,56.2479726 222.136,61.72 L222.136,48.904 C222.136,48.1359962 222.399997,47.4640029 222.928,46.888 C223.456003,46.3119971 224.151996,46.024 225.016,46.024 C225.880004,46.024 226.575997,46.3119971 227.104,46.888 L227.104,46.888 Z M209.104,109.6 C213.376021,106.767986 216.711988,102.856025 219.112,97.864 C221.512012,92.871975 222.712,87.3040307 222.712,81.16 C222.712,75.3039707 221.512012,69.9280245 219.112,65.032 C216.711988,60.1359755 213.376021,56.2720142 209.104,53.44 C204.831979,50.6079858 200.056026,49.192 194.776,49.192 C189.495974,49.192 184.720021,50.5599863 180.448,53.296 C176.175979,56.0320137 172.840012,59.8239758 170.44,64.672 C168.039988,69.5200242 166.84,75.0159693 166.84,81.16 C166.84,87.3040307 168.039988,92.871975 170.44,97.864 C172.840012,102.856025 176.151979,106.767986 180.376,109.6 C184.600021,112.432014 189.399973,113.848 194.776,113.848 C200.056026,113.848 204.831979,112.432014 209.104,109.6 L209.104,109.6 Z M352.384,52.936 C356.656021,58.1200259 358.792,64.8399587 358.792,73.096 L358.792,115 C358.792,115.768004 358.528003,116.439997 358,117.016 C357.471997,117.592003 356.776004,117.88 355.912,117.88 C355.047996,117.88 354.352003,117.592003 353.824,117.016 C353.295997,116.439997 353.032,115.768004 353.032,115 L353.032,73.672 C353.032,66.8559659 351.376017,61.3120214 348.064,57.04 C344.751983,52.7679786 339.736034,50.632 333.016,50.632 C328.887979,50.632 324.83202,51.6879894 320.848,53.8 C316.86398,55.9120106 313.624012,58.7199825 311.128,62.224 C308.631988,65.7280175 307.384,69.5439794 307.384,73.672 L307.384,115 C307.384,115.768004 307.120003,116.439997 306.592,117.016 C306.063997,117.592003 305.368004,117.88 304.504,117.88 C303.639996,117.88 302.944003,117.592003 302.416,117.016 C301.887997,116.439997 301.624,115.768004 301.624,115 L301.624,72.952 C301.624,66.3279669 300.040016,60.9520206 296.872,56.824 C293.703984,52.6959794 288.904032,50.632 282.472,50.632 C278.43998,50.632 274.504019,51.6399899 270.664,53.656 C266.823981,55.6720101 263.680012,58.4079827 261.232,61.864 C258.783988,65.3200173 257.56,69.0159803 257.56,72.952 L257.56,115 C257.56,115.768004 257.272003,116.439997 256.696,117.016 C256.119997,117.592003 255.448004,117.88 254.68,117.88 C253.815996,117.88 253.120003,117.592003 252.592,117.016 C252.063997,116.439997 251.8,115.768004 251.8,115 L251.8,48.904 C251.8,48.1359962 252.087997,47.4640029 252.664,46.888 C253.240003,46.3119971 253.911996,46.024 254.68,46.024 C255.544004,46.024 256.239997,46.3119971 256.768,46.888 C257.296003,47.4640029 257.56,48.1359962 257.56,48.904 L257.56,58.984 C260.344014,54.9519798 263.967978,51.640013 268.432,49.048 C272.896022,46.455987 277.575976,45.16 282.472,45.16 C287.752026,45.16 292.455979,46.5039866 296.584,49.192 C300.712021,51.8800134 303.73599,55.8159741 305.656,61 C307.67201,56.5839779 311.487972,52.8400154 317.104,49.768 C322.720028,46.6959846 328.215973,45.16 333.592,45.16 C341.848041,45.16 348.111979,47.7519741 352.384,52.936 L352.384,52.936 Z M443.464,43.36 C445.096008,45.0400084 445.912,47.1279875 445.912,49.624 L445.912,86.2 C445.912,96.5680518 443.056029,104.679971 437.344,110.536 C431.631971,116.392029 423.496053,119.32 412.936,119.32 C402.375947,119.32 394.264028,116.392029 388.6,110.536 C382.935972,104.679971 380.104,96.5680518 380.104,86.2 L380.104,49.624 C380.104,47.1279875 380.919992,45.0400084 382.552,43.36 C384.184008,41.6799916 386.247988,40.84 388.744,40.84 C391.240012,40.84 393.303992,41.6799916 394.936,43.36 C396.568008,45.0400084 397.384,47.1279875 397.384,49.624 L397.384,86.2 C397.384,92.0560293 398.679987,96.3999858 401.272,99.232 C403.864013,102.064014 407.751974,103.48 412.936,103.48 C418.216026,103.48 422.151987,102.064014 424.744,99.232 C427.336013,96.3999858 428.632,92.0560293 428.632,86.2 L428.632,49.624 C428.632,47.1279875 429.447992,45.0400084 431.08,43.36 C432.712008,41.6799916 434.775988,40.84 437.272,40.84 C439.768012,40.84 441.831992,41.6799916 443.464,43.36 L443.464,43.36 Z M522.52,44.512 C527.896027,47.920017 532.143984,52.6479698 535.264,58.696 C538.384016,64.7440302 539.944,71.6079616 539.944,79.288 C539.944,86.9680384 538.408015,93.8559695 535.336,99.952 C532.263985,106.04803 528.064027,110.799983 522.736,114.208 C517.407973,117.616017 511.528032,119.32 505.096,119.32 C500.487977,119.32 496.14402,118.384009 492.064,116.512 C487.98398,114.639991 484.600013,112.360013 481.912,109.672 L481.912,137.896 C481.912,140.392012 481.096008,142.479992 479.464,144.16 C477.831992,145.840008 475.768012,146.68 473.272,146.68 C470.775988,146.68 468.712008,145.864008 467.08,144.232 C465.447992,142.599992 464.632,140.488013 464.632,137.896 L464.632,49.624 C464.632,47.1279875 465.447992,45.0400084 467.08,43.36 C468.712008,41.6799916 470.775988,40.84 473.272,40.84 C475.768012,40.84 477.831992,41.6799916 479.464,43.36 C481.096008,45.0400084 481.912,47.1279875 481.912,49.624 L481.912,50.2 C484.216012,47.3199856 487.431979,44.8000108 491.56,42.64 C495.688021,40.4799892 500.007977,39.4 504.52,39.4 C511.144033,39.4 517.143973,41.103983 522.52,44.512 L522.52,44.512 Z M517.48,96.568 C521.41602,91.959977 523.384,86.2000346 523.384,79.288 C523.384,72.3759654 521.440019,66.6400228 517.552,62.08 C513.663981,57.5199772 508.600031,55.24 502.36,55.24 C496.119969,55.24 491.03202,57.5199772 487.096,62.08 C483.15998,66.6400228 481.192,72.3759654 481.192,79.288 C481.192,86.2000346 483.15998,91.959977 487.096,96.568 C491.03202,101.176023 496.119969,103.48 502.36,103.48 C508.504031,103.48 513.54398,101.176023 517.48,96.568 L517.48,96.568 Z" id="beamup" fill="#F6F0F7" sketch:type="MSShapeGroup"></path>
    </g>
</svg>